<mxfile host="app.diagrams.net" agent="Mozilla/5.0 (Macintosh; Intel Mac OS X 10_15_7) AppleWebKit/537.36 (KHTML, like Gecko) Chrome/132.0.0.0 Safari/537.36" version="24.7.7">
  <diagram name="第 1 页" id="IQ9Vl7TTCOwy3ReOFuCQ">
    <mxGraphModel dx="1242" dy="1954" grid="1" gridSize="10" guides="1" tooltips="1" connect="1" arrows="1" fold="1" page="1" pageScale="1" pageWidth="827" pageHeight="1169" math="0" shadow="0">
      <root>
        <mxCell id="0" />
        <mxCell id="1" parent="0" />
        <mxCell id="WnZRo6pyd_BZn87CbMSf-15" value="" style="group" vertex="1" connectable="0" parent="1">
          <mxGeometry x="50" y="60" width="180" height="450" as="geometry" />
        </mxCell>
        <mxCell id="WnZRo6pyd_BZn87CbMSf-8" value="&lt;font color=&quot;#4fadea&quot;&gt;生成补丁&lt;/font&gt;" style="swimlane;whiteSpace=wrap;html=1;" vertex="1" parent="WnZRo6pyd_BZn87CbMSf-15">
          <mxGeometry width="180" height="450" as="geometry" />
        </mxCell>
        <mxCell id="WnZRo6pyd_BZn87CbMSf-9" style="edgeStyle=orthogonalEdgeStyle;rounded=0;orthogonalLoop=1;jettySize=auto;html=1;" edge="1" parent="WnZRo6pyd_BZn87CbMSf-15" source="WnZRo6pyd_BZn87CbMSf-1" target="WnZRo6pyd_BZn87CbMSf-2">
          <mxGeometry relative="1" as="geometry" />
        </mxCell>
        <mxCell id="WnZRo6pyd_BZn87CbMSf-1" value="构建新Apk" style="rounded=1;whiteSpace=wrap;html=1;" vertex="1" parent="WnZRo6pyd_BZn87CbMSf-15">
          <mxGeometry x="30" y="50" width="120" height="40" as="geometry" />
        </mxCell>
        <mxCell id="WnZRo6pyd_BZn87CbMSf-10" style="edgeStyle=orthogonalEdgeStyle;rounded=0;orthogonalLoop=1;jettySize=auto;html=1;" edge="1" parent="WnZRo6pyd_BZn87CbMSf-15" source="WnZRo6pyd_BZn87CbMSf-2" target="WnZRo6pyd_BZn87CbMSf-3">
          <mxGeometry relative="1" as="geometry" />
        </mxCell>
        <mxCell id="WnZRo6pyd_BZn87CbMSf-2" value="对比新旧Apk" style="rounded=1;whiteSpace=wrap;html=1;" vertex="1" parent="WnZRo6pyd_BZn87CbMSf-15">
          <mxGeometry x="30" y="120" width="120" height="40" as="geometry" />
        </mxCell>
        <mxCell id="WnZRo6pyd_BZn87CbMSf-12" style="edgeStyle=orthogonalEdgeStyle;rounded=0;orthogonalLoop=1;jettySize=auto;html=1;" edge="1" parent="WnZRo6pyd_BZn87CbMSf-15" source="WnZRo6pyd_BZn87CbMSf-3" target="WnZRo6pyd_BZn87CbMSf-4">
          <mxGeometry relative="1" as="geometry" />
        </mxCell>
        <mxCell id="WnZRo6pyd_BZn87CbMSf-3" value="生成Dex补丁" style="rounded=1;whiteSpace=wrap;html=1;" vertex="1" parent="WnZRo6pyd_BZn87CbMSf-15">
          <mxGeometry x="30" y="190" width="120" height="40" as="geometry" />
        </mxCell>
        <mxCell id="WnZRo6pyd_BZn87CbMSf-13" style="edgeStyle=orthogonalEdgeStyle;rounded=0;orthogonalLoop=1;jettySize=auto;html=1;" edge="1" parent="WnZRo6pyd_BZn87CbMSf-15" source="WnZRo6pyd_BZn87CbMSf-4" target="WnZRo6pyd_BZn87CbMSf-5">
          <mxGeometry relative="1" as="geometry" />
        </mxCell>
        <mxCell id="WnZRo6pyd_BZn87CbMSf-4" value="生成so补丁" style="rounded=1;whiteSpace=wrap;html=1;" vertex="1" parent="WnZRo6pyd_BZn87CbMSf-15">
          <mxGeometry x="30" y="260" width="120" height="40" as="geometry" />
        </mxCell>
        <mxCell id="WnZRo6pyd_BZn87CbMSf-14" style="edgeStyle=orthogonalEdgeStyle;rounded=0;orthogonalLoop=1;jettySize=auto;html=1;" edge="1" parent="WnZRo6pyd_BZn87CbMSf-15" source="WnZRo6pyd_BZn87CbMSf-5" target="WnZRo6pyd_BZn87CbMSf-6">
          <mxGeometry relative="1" as="geometry" />
        </mxCell>
        <mxCell id="WnZRo6pyd_BZn87CbMSf-5" value="生成资源补丁" style="rounded=1;whiteSpace=wrap;html=1;" vertex="1" parent="WnZRo6pyd_BZn87CbMSf-15">
          <mxGeometry x="30" y="330" width="120" height="40" as="geometry" />
        </mxCell>
        <mxCell id="WnZRo6pyd_BZn87CbMSf-6" value="合成补丁包" style="rounded=1;whiteSpace=wrap;html=1;" vertex="1" parent="WnZRo6pyd_BZn87CbMSf-15">
          <mxGeometry x="30" y="400" width="120" height="40" as="geometry" />
        </mxCell>
        <mxCell id="WnZRo6pyd_BZn87CbMSf-16" value="" style="group" vertex="1" connectable="0" parent="1">
          <mxGeometry x="290" width="190" height="610" as="geometry" />
        </mxCell>
        <mxCell id="WnZRo6pyd_BZn87CbMSf-17" value="&lt;font color=&quot;#4fadea&quot;&gt;应用补丁&lt;/font&gt;" style="swimlane;whiteSpace=wrap;html=1;" vertex="1" parent="WnZRo6pyd_BZn87CbMSf-16">
          <mxGeometry width="180" height="580" as="geometry" />
        </mxCell>
        <mxCell id="WnZRo6pyd_BZn87CbMSf-33" style="edgeStyle=orthogonalEdgeStyle;rounded=0;orthogonalLoop=1;jettySize=auto;html=1;" edge="1" parent="WnZRo6pyd_BZn87CbMSf-17" source="WnZRo6pyd_BZn87CbMSf-29" target="WnZRo6pyd_BZn87CbMSf-30">
          <mxGeometry relative="1" as="geometry" />
        </mxCell>
        <mxCell id="WnZRo6pyd_BZn87CbMSf-29" value="更新资源引用" style="rounded=1;whiteSpace=wrap;html=1;" vertex="1" parent="WnZRo6pyd_BZn87CbMSf-17">
          <mxGeometry x="30" y="410" width="120" height="40" as="geometry" />
        </mxCell>
        <mxCell id="WnZRo6pyd_BZn87CbMSf-34" style="edgeStyle=orthogonalEdgeStyle;rounded=0;orthogonalLoop=1;jettySize=auto;html=1;" edge="1" parent="WnZRo6pyd_BZn87CbMSf-17" source="WnZRo6pyd_BZn87CbMSf-30" target="WnZRo6pyd_BZn87CbMSf-31">
          <mxGeometry relative="1" as="geometry" />
        </mxCell>
        <mxCell id="WnZRo6pyd_BZn87CbMSf-30" value="应用so库补丁" style="rounded=1;whiteSpace=wrap;html=1;" vertex="1" parent="WnZRo6pyd_BZn87CbMSf-17">
          <mxGeometry x="30" y="470" width="120" height="40" as="geometry" />
        </mxCell>
        <mxCell id="WnZRo6pyd_BZn87CbMSf-31" value="更新so库文件" style="rounded=1;whiteSpace=wrap;html=1;" vertex="1" parent="WnZRo6pyd_BZn87CbMSf-17">
          <mxGeometry x="30" y="530" width="120" height="40" as="geometry" />
        </mxCell>
        <mxCell id="WnZRo6pyd_BZn87CbMSf-18" style="edgeStyle=orthogonalEdgeStyle;rounded=0;orthogonalLoop=1;jettySize=auto;html=1;" edge="1" parent="WnZRo6pyd_BZn87CbMSf-16" source="WnZRo6pyd_BZn87CbMSf-19" target="WnZRo6pyd_BZn87CbMSf-21">
          <mxGeometry relative="1" as="geometry" />
        </mxCell>
        <mxCell id="WnZRo6pyd_BZn87CbMSf-19" value="App启动" style="rounded=1;whiteSpace=wrap;html=1;" vertex="1" parent="WnZRo6pyd_BZn87CbMSf-16">
          <mxGeometry x="30" y="50" width="120" height="40" as="geometry" />
        </mxCell>
        <mxCell id="WnZRo6pyd_BZn87CbMSf-20" style="edgeStyle=orthogonalEdgeStyle;rounded=0;orthogonalLoop=1;jettySize=auto;html=1;" edge="1" parent="WnZRo6pyd_BZn87CbMSf-16" source="WnZRo6pyd_BZn87CbMSf-21" target="WnZRo6pyd_BZn87CbMSf-23">
          <mxGeometry relative="1" as="geometry" />
        </mxCell>
        <mxCell id="WnZRo6pyd_BZn87CbMSf-21" value="Tinker初始化" style="rounded=1;whiteSpace=wrap;html=1;" vertex="1" parent="WnZRo6pyd_BZn87CbMSf-16">
          <mxGeometry x="30" y="110" width="120" height="40" as="geometry" />
        </mxCell>
        <mxCell id="WnZRo6pyd_BZn87CbMSf-22" style="edgeStyle=orthogonalEdgeStyle;rounded=0;orthogonalLoop=1;jettySize=auto;html=1;" edge="1" parent="WnZRo6pyd_BZn87CbMSf-16" source="WnZRo6pyd_BZn87CbMSf-23" target="WnZRo6pyd_BZn87CbMSf-25">
          <mxGeometry relative="1" as="geometry" />
        </mxCell>
        <mxCell id="WnZRo6pyd_BZn87CbMSf-23" value="加载补丁" style="rounded=1;whiteSpace=wrap;html=1;" vertex="1" parent="WnZRo6pyd_BZn87CbMSf-16">
          <mxGeometry x="30" y="170" width="120" height="40" as="geometry" />
        </mxCell>
        <mxCell id="WnZRo6pyd_BZn87CbMSf-24" style="edgeStyle=orthogonalEdgeStyle;rounded=0;orthogonalLoop=1;jettySize=auto;html=1;" edge="1" parent="WnZRo6pyd_BZn87CbMSf-16" source="WnZRo6pyd_BZn87CbMSf-25" target="WnZRo6pyd_BZn87CbMSf-27">
          <mxGeometry relative="1" as="geometry" />
        </mxCell>
        <mxCell id="WnZRo6pyd_BZn87CbMSf-25" value="合并Dex" style="rounded=1;whiteSpace=wrap;html=1;" vertex="1" parent="WnZRo6pyd_BZn87CbMSf-16">
          <mxGeometry x="30" y="230" width="120" height="40" as="geometry" />
        </mxCell>
        <mxCell id="WnZRo6pyd_BZn87CbMSf-26" style="edgeStyle=orthogonalEdgeStyle;rounded=0;orthogonalLoop=1;jettySize=auto;html=1;" edge="1" parent="WnZRo6pyd_BZn87CbMSf-16" source="WnZRo6pyd_BZn87CbMSf-27" target="WnZRo6pyd_BZn87CbMSf-28">
          <mxGeometry relative="1" as="geometry" />
        </mxCell>
        <mxCell id="WnZRo6pyd_BZn87CbMSf-27" value="替换ClassLoader" style="rounded=1;whiteSpace=wrap;html=1;" vertex="1" parent="WnZRo6pyd_BZn87CbMSf-16">
          <mxGeometry x="30" y="290" width="120" height="40" as="geometry" />
        </mxCell>
        <mxCell id="WnZRo6pyd_BZn87CbMSf-32" style="edgeStyle=orthogonalEdgeStyle;rounded=0;orthogonalLoop=1;jettySize=auto;html=1;" edge="1" parent="WnZRo6pyd_BZn87CbMSf-16" source="WnZRo6pyd_BZn87CbMSf-28" target="WnZRo6pyd_BZn87CbMSf-29">
          <mxGeometry relative="1" as="geometry" />
        </mxCell>
        <mxCell id="WnZRo6pyd_BZn87CbMSf-28" value="应用资源补丁" style="rounded=1;whiteSpace=wrap;html=1;" vertex="1" parent="WnZRo6pyd_BZn87CbMSf-16">
          <mxGeometry x="30" y="350" width="120" height="40" as="geometry" />
        </mxCell>
        <mxCell id="WnZRo6pyd_BZn87CbMSf-36" style="edgeStyle=orthogonalEdgeStyle;rounded=0;orthogonalLoop=1;jettySize=auto;html=1;entryX=0.5;entryY=0;entryDx=0;entryDy=0;exitX=0.5;exitY=1;exitDx=0;exitDy=0;strokeWidth=3;" edge="1" parent="1" source="WnZRo6pyd_BZn87CbMSf-8" target="WnZRo6pyd_BZn87CbMSf-17">
          <mxGeometry relative="1" as="geometry" />
        </mxCell>
        <mxCell id="WnZRo6pyd_BZn87CbMSf-37" value="&lt;span style=&quot;font-size: 18px;&quot;&gt;&lt;font color=&quot;#4fadea&quot;&gt;Tinker热更新流程&lt;/font&gt;&lt;/span&gt;" style="swimlane;whiteSpace=wrap;html=1;" vertex="1" parent="1">
          <mxGeometry x="40" y="-60" width="440" height="650" as="geometry" />
        </mxCell>
      </root>
    </mxGraphModel>
  </diagram>
</mxfile>
